<?xml version="1.0" encoding="UTF-8" standalone="no"?>
<svg
   width="24"
   height="24"
   viewBox="0 0 24 24"
   version="1.1"
   id="svg6"
   sodipodi:docname="laravel.svg"
   inkscape:version="1.1.1 (3bf5ae0d25, 2021-09-20)"
   xmlns:inkscape="http://www.inkscape.org/namespaces/inkscape"
   xmlns:sodipodi="http://sodipodi.sourceforge.net/DTD/sodipodi-0.dtd"
   xmlns="http://www.w3.org/2000/svg"
   xmlns:svg="http://www.w3.org/2000/svg"
   xmlns:rdf="http://www.w3.org/1999/02/22-rdf-syntax-ns#"
   xmlns:cc="http://creativecommons.org/ns#"
   xmlns:dc="http://purl.org/dc/elements/1.1/">
  <defs
     id="defs10" />
  <sodipodi:namedview
     id="namedview8"
     pagecolor="#505050"
     bordercolor="#ffffff"
     borderopacity="1"
     inkscape:pageshadow="0"
     inkscape:pageopacity="0"
     inkscape:pagecheckerboard="1"
     showgrid="false"
     inkscape:snap-page="true"
     inkscape:snap-bbox="true"
     inkscape:zoom="11.449691"
     inkscape:cx="11.965389"
     inkscape:cy="11.048334"
     inkscape:window-width="1920"
     inkscape:window-height="1027"
     inkscape:window-x="-8"
     inkscape:window-y="-8"
     inkscape:window-maximized="1"
     inkscape:current-layer="svg6" />
  <title
     id="title2">Logomark</title>
  <rect
     style="fill:#ffffff;stroke:#88827e;stroke-width:0.15;stroke-opacity:0"
     id="rect851"
     width="24"
     height="24"
     x="0"
     y="0" />
  <path
     d="m 22.294193,6.1908988 a 0.33582004,0.33582004 0 0 1 0.01162,0.086757 v 4.5545332 a 0.33208409,0.33208409 0 0 1 -0.16687,0.288083 L 18.31624,13.32116 v 4.362339 c 0,0.11872 -0.0631,0.228308 -0.166042,0.288083 l -7.979565,4.593554 c -0.01826,0.01037 -0.03819,0.01702 -0.05811,0.02407 -0.0075,0.0024 -0.01453,0.007 -0.02242,0.0091 a 0.33415961,0.33415961 0 0 1 -0.170192,0 c -0.0091,-0.0024 -0.01744,-0.0075 -0.02615,-0.01079 -0.01827,-0.0066 -0.03736,-0.01245 -0.0548,-0.02242 L 1.8610593,17.971582 A 0.3324992,0.3324992 0 0 1 1.694187,17.683499 V 4.0198991 c 0,-0.029888 0.00415,-0.058945 0.011623,-0.087172 0.00249,-0.00955 0.00831,-0.018265 0.011623,-0.027812 0.00622,-0.017434 0.012038,-0.035284 0.02117,-0.051473 0.00622,-0.010793 0.015359,-0.01951 0.02283,-0.029473 0.00955,-0.013283 0.018264,-0.026982 0.029472,-0.038605 0.00955,-0.00955 0.022001,-0.016604 0.032794,-0.024906 0.012038,-0.00996 0.02283,-0.020755 0.036529,-0.028643 h 4.151e-4 l 3.989161,-2.2967749 a 0.3329143,0.3329143 0 0 1 0.3320841,0 l 3.9891598,2.2967766 h 8.31e-4 c 0.01328,0.00831 0.02449,0.01868 0.03653,0.028227 0.01079,0.00831 0.02283,0.015774 0.03238,0.024906 0.01162,0.012038 0.01992,0.025736 0.02988,0.03902 0.007,0.00996 0.0166,0.018679 0.02242,0.029473 0.0096,0.016604 0.01494,0.034038 0.02159,0.051473 0.0033,0.00955 0.0091,0.018265 0.01162,0.028227 a 0.33582004,0.33582004 0 0 1 0.01162,0.086757 v 8.5341452 l 3.324157,-1.914049 V 6.2772406 c 0,-0.029057 0.0042,-0.05853 0.01162,-0.086342 0.0029,-0.00996 0.0083,-0.018679 0.01162,-0.028227 0.0066,-0.017434 0.01245,-0.035284 0.02159,-0.051473 0.0063,-0.010793 0.01536,-0.01951 0.02242,-0.029472 0.01,-0.013284 0.01826,-0.026982 0.02988,-0.038605 0.0095,-0.00955 0.02158,-0.016603 0.03238,-0.024907 0.01245,-0.00996 0.02325,-0.020755 0.03653,-0.028642 h 4.14e-4 l 3.989576,-2.2967765 a 0.3324992,0.3324992 0 0 1 0.332083,0 l 3.989161,2.2967765 c 0.01411,0.00831 0.02491,0.01868 0.03735,0.028227 0.01038,0.00831 0.02242,0.015774 0.03196,0.024906 0.01162,0.012039 0.01993,0.025736 0.02988,0.03902 0.0075,0.00996 0.0166,0.01868 0.02242,0.029472 0.0096,0.016189 0.01495,0.034039 0.02158,0.051473 0.0037,0.00955 0.0091,0.018265 0.01162,0.028227 z M 21.640818,10.639996 V 6.8525763 L 20.244819,7.6562198 18.31624,8.7666259 v 3.7874191 l 3.324992,-1.914049 z m -3.989161,6.851308 v -3.789909 l -1.89703,1.083426 -5.417122,3.091702 v 3.825609 z M 2.3591854,4.5948196 V 17.491304 l 7.3133216,4.210413 v -3.824779 l -3.8206272,-2.162282 -0.00124,-8.3e-4 -0.00166,-8.31e-4 c -0.012868,-0.0075 -0.023661,-0.01826 -0.035699,-0.0274 -0.010377,-0.0083 -0.022416,-0.01495 -0.031548,-0.02407 l -8.302e-4,-0.0013 c -0.010793,-0.01037 -0.018265,-0.02325 -0.027397,-0.03487 -0.00831,-0.0112 -0.018265,-0.02075 -0.024907,-0.03238 l -4.151e-4,-0.0013 c -0.00747,-0.01246 -0.012038,-0.0274 -0.017434,-0.04151 -0.0054,-0.01245 -0.012453,-0.02407 -0.015774,-0.03735 v -4.16e-4 c -0.00415,-0.01578 -0.00498,-0.03238 -0.00664,-0.04857 -0.00166,-0.01246 -0.00498,-0.02491 -0.00498,-0.03735 V 15.425742 6.5088692 L 3.7551839,5.3980479 2.3591854,4.5952346 Z M 6.0162615,2.1066796 2.6925149,4.0198991 6.0154313,5.9331185 9.3387627,4.0194839 6.0154313,2.1066796 Z M 7.7447592,14.046763 9.672922,12.936772 V 4.5948196 L 8.2769239,5.3984631 6.3483455,6.5088692 V 14.850822 Z M 17.984157,4.3644362 14.660825,6.2776557 17.984157,8.1908752 21.307073,6.2772406 Z M 17.651657,8.7666259 15.723079,7.6562198 14.32708,6.8525763 v 3.7874197 l 1.928164,1.109991 1.396413,0.804058 z m -7.647065,8.5349761 4.874577,-2.782864 2.436668,-1.390603 -3.32084,-1.911974 -3.823534,2.201303 -3.4848067,2.006202 z"
     fill="#ff2d20"
     fill-rule="evenodd"
     id="path4"
     style="stroke-width:0.415105" />
  <metadata
     id="metadata827">
    <rdf:RDF>
      <cc:Work
         rdf:about="">
        <dc:title>Logomark</dc:title>
      </cc:Work>
    </rdf:RDF>
  </metadata>
</svg>
