<?xml version="1.0" encoding="UTF-8" standalone="no"?>
<svg
   width="24"
   height="24"
   viewBox="0 0 24 24"
   version="1.1"
   preserveAspectRatio="xMidYMid"
   id="svg18"
   sodipodi:docname="materialize.svg"
   inkscape:version="1.1.1 (3bf5ae0d25, 2021-09-20)"
   xmlns:inkscape="http://www.inkscape.org/namespaces/inkscape"
   xmlns:sodipodi="http://sodipodi.sourceforge.net/DTD/sodipodi-0.dtd"
   xmlns="http://www.w3.org/2000/svg"
   xmlns:svg="http://www.w3.org/2000/svg">
  <defs
     id="defs22" />
  <sodipodi:namedview
     id="namedview20"
     pagecolor="#3a3a3a"
     bordercolor="#ffffff"
     borderopacity="1"
     inkscape:pageshadow="0"
     inkscape:pageopacity="1"
     inkscape:pagecheckerboard="false"
     showgrid="false"
     inkscape:snap-page="true"
     inkscape:snap-bbox="true"
     inkscape:bbox-nodes="true"
     inkscape:zoom="12.396466"
     inkscape:cx="32.75127"
     inkscape:cy="17.464655"
     inkscape:window-width="1920"
     inkscape:window-height="1027"
     inkscape:window-x="3832"
     inkscape:window-y="-8"
     inkscape:window-maximized="1"
     inkscape:current-layer="svg18" />
  <g
     id="g16"
     transform="translate(0,1.5798949)">
    <g
       stroke-width="0.09375"
       id="g14">
      <path
         d="M 5.9236258,4.6625906 C 6.0105092,4.5148877 6.1234594,4.3729768 6.285643,4.3034695 6.352254,4.2918855 6.4188654,4.2976795 6.4854765,4.2976795 H 9.7639043 C 9.6683321,4.3787692 9.5756554,4.4627571 9.5119405,4.5728104 9.3439652,4.8479435 9.2310154,5.1549341 9.1267542,5.4619248 8.8313485,6.3886889 8.6257227,7.3415183 8.4258892,8.2943478 8.3361086,8.7258723 8.2492248,9.1602929 8.1681326,9.5918175 7.919065,11.005133 7.6613088,12.415551 7.3398374,13.814387 c -0.1534955,0.645838 -0.309887,1.291678 -0.5473704,1.914348 -0.110053,0.257756 -0.2172099,0.532889 -0.4286283,0.724034 -0.049234,0.04345 -0.098469,0.09847 -0.1679758,0.08978 H 3.2997249 C 3.1027875,16.536722 2.9087463,16.554122 2.7118087,16.53381 2.8421351,16.432447 2.9579807,16.310807 3.0332801,16.166 3.2504906,15.751854 3.386609,15.302953 3.5169352,14.856948 3.7196649,14.138705 3.8818488,13.411775 4.035344,12.684843 4.130917,12.206981 4.2438658,11.732014 4.3133735,11.251256 4.3915686,10.715522 4.5103105,10.185529 4.6058829,9.652639 4.7564824,8.8677858 4.9157699,8.0829325 5.0924344,7.3038712 5.2343448,6.6956824 5.3791518,6.0903895 5.573193,5.4966812 5.6687659,5.2099636 5.7730267,4.926142 5.9236258,4.6625934 Z"
         stroke="#eb7077"
         fill="#eb7077"
         id="path2"
         style="stroke-width:0.00879236" />
      <path
         d="m 9.7639043,4.2976773 c 0.083988,0 0.1679768,-0.00289 0.2519637,0 0.185354,0.09847 0.341745,0.25486 0.428629,0.4489013 0.115845,0.2201066 0.211418,0.4517975 0.298303,0.6892809 0.289614,0.8949065 0.486551,1.8158785 0.683489,2.7339544 0.167976,0.8225029 0.327263,1.647902 0.477862,2.4761981 0.01158,0.04344 -0.0029,0.104263 0.05503,0.115845 -0.208522,1.088948 -0.414148,2.180791 -0.6748,3.261052 -0.141911,0.582124 -0.292509,1.16135 -0.506824,1.723202 -0.115846,0.280926 -0.234587,0.587916 -0.480759,0.78775 -0.15639,0.03475 -0.26934,-0.08399 -0.3649124,-0.191145 C 9.766804,16.131297 9.6654395,15.882229 9.5669705,15.633161 9.2397074,14.741151 9.0398738,13.811491 8.8371442,12.884727 8.6836488,12.163587 8.5475301,11.436658 8.4056199,10.712623 8.3419051,10.344813 8.2550206,9.9827961 8.2057864,9.6149865 8.1970945,9.6091942 8.1768252,9.5976083 8.1681333,9.5918167 8.2492248,9.1602922 8.3361086,8.7258717 8.4258892,8.2943471 8.6257236,7.3415184 8.8313492,6.388689 9.1267549,5.4619249 9.2310163,5.1549342 9.3439658,4.8479435 9.5119412,4.5728104 9.575656,4.4627571 9.6683328,4.3787693 9.7639043,4.2976773 Z"
         stroke="#f6a2ad"
         fill="#f6a2ad"
         id="path4"
         style="stroke-width:0.00879236" />
      <path
         d="m 13.386974,4.7987091 c 0.104263,-0.1998336 0.231691,-0.4228361 0.45759,-0.4981357 1.149766,-0.00579 2.299533,-0.00289 3.4493,-0.00289 -0.107156,0.1071577 -0.220106,0.2143148 -0.292511,0.3504332 -0.223003,0.3996671 -0.353328,0.8427762 -0.48655,1.280093 -0.341746,1.2047934 -0.582125,2.4356522 -0.810919,3.6665107 -0.211418,1.2134817 -0.437317,2.4269647 -0.695072,3.6346517 -0.133224,0.60819 -0.272237,1.213483 -0.448903,1.812982 -0.112949,0.370708 -0.231692,0.744308 -0.417043,1.088949 -0.08978,0.156392 -0.19404,0.327264 -0.364913,0.408356 -1.097638,0.0087 -2.198171,0 -3.295806,0.0029 -0.06082,0 -0.124534,0 -0.185353,-0.0087 0.246172,-0.199834 0.364913,-0.506824 0.48076,-0.787749 0.214314,-0.561852 0.364913,-1.141079 0.506824,-1.723203 0.260651,-1.080259 0.466278,-2.172103 0.6748,-3.261052 0.251963,-1.4046119 0.515511,-2.809239 0.851464,-4.1964889 0.156391,-0.5995006 0.306991,-1.2076896 0.576332,-1.7666443 z"
         stroke="#eb7077"
         fill="#eb7077"
         id="path6"
         style="stroke-width:0.00879236" />
      <path
         d="m 17.293864,4.2976773 c 0.09267,0 0.188248,-0.00289 0.280925,0 0.1506,0.078196 0.257757,0.211418 0.353329,0.3475365 0.156392,0.2490679 0.254861,0.5299932 0.356226,0.8051264 0.240378,0.7385152 0.419939,1.4973032 0.585019,2.2560915 0.220107,1.0223368 0.411251,2.0504654 0.5995,3.0785943 0.04634,0.246172 0.09267,0.49524 0.121637,0.744309 0.01158,0.01158 0.03475,0.03475 0.04345,0.04344 -0.104263,0.144806 -0.144807,0.318575 -0.202732,0.483654 -0.182456,0.587917 -0.301198,1.196105 -0.402563,1.801399 -0.07819,0.474966 -0.185352,0.947037 -0.333055,1.404626 -0.110053,0.338848 -0.243276,0.6748 -0.463383,0.958622 -0.104264,0.136118 -0.246171,0.24038 -0.402563,0.309886 -0.240378,0.02606 -0.382289,-0.205625 -0.498135,-0.376497 -0.240383,-0.41994 -0.370709,-0.889114 -0.509723,-1.346703 -0.457591,-1.694242 -0.755893,-3.42903 -1.077365,-5.1522311 -0.0028,-0.026065 -0.01738,-0.049234 -0.04055,-0.060819 0.228794,-1.2308585 0.469173,-2.4617172 0.810919,-3.6665106 0.133222,-0.4373169 0.263547,-0.880426 0.486551,-1.280093 0.07241,-0.1361185 0.185354,-0.2432757 0.292509,-0.3504327 z"
         stroke="#f6a2ad"
         fill="#f6a2ad"
         id="path8"
         style="stroke-width:0.00879236" />
      <path
         d="m 0.00102367,10.886392 c 0.07529955,-0.0058 0.15059918,-0.01738 0.2287949,-0.01738 H 3.386609 c 0.1332222,0.01738 0.272237,0.0058 0.399667,0.06371 0.1853526,0.0753 0.3504328,0.20273 0.4720703,0.362017 0.014481,-0.0087 0.040546,-0.03186 0.055028,-0.04344 -0.069508,0.480754 -0.1824571,0.95572 -0.2780297,1.433583 -0.1534951,0.72693 -0.3156791,1.453861 -0.5184088,2.172104 -0.1303262,0.446005 -0.2664446,0.894907 -0.4836551,1.309054 -0.075299,0.144807 -0.191145,0.266444 -0.3214714,0.367809 -0.049234,0.0087 -0.086883,-0.02606 -0.1274299,-0.05213 C 2.4482603,16.394845 2.3700647,16.244246 2.2860766,16.108128 1.8893056,15.204534 1.8458635,14.205366 1.5996919,13.261224 1.4751579,12.789154 1.3216626,12.31998 1.0957637,11.885559 0.95674923,11.624906 0.78587706,11.375838 0.56287442,11.176005 0.39779457,11.042783 0.20664946,10.935626 0.00102367,10.886392 Z"
         stroke="#f6a2ad"
         fill="#f6a2ad"
         id="path10"
         style="stroke-width:0.00879236" />
      <path
         d="m 19.888804,11.18759 c 0.182455,-0.205627 0.454693,-0.335952 0.729825,-0.324368 h 2.374835 c 0.330157,0.0058 0.663217,-0.01158 0.993376,0.0087 -0.09847,0.06662 -0.217211,0.09267 -0.321472,0.147704 -0.362016,0.165079 -0.671904,0.440213 -0.868842,0.784853 -0.31568,0.550266 -0.425732,1.181624 -0.518409,1.801398 -0.09267,0.608188 -0.08978,1.236651 -0.286716,1.827462 -0.133225,0.414149 -0.335955,0.831194 -0.686386,1.103429 -1.088948,0.01158 -2.177897,0.0029 -3.263947,0.0058 -0.07241,0 -0.14191,0.0029 -0.21142,-0.01158 0.156393,-0.06951 0.298303,-0.173767 0.402564,-0.309885 0.220107,-0.283823 0.353329,-0.619773 0.463383,-0.958622 0.147703,-0.45759 0.25486,-0.929661 0.333054,-1.404627 0.101363,-0.605293 0.220108,-1.213482 0.402564,-1.801399 0.05792,-0.16508 0.09847,-0.338847 0.202732,-0.483656 0.08687,-0.127428 0.144805,-0.275132 0.254859,-0.385185 z"
         stroke="#eb7077"
         fill="#eb7077"
         id="path12"
         style="stroke-width:0.00879236" />
    </g>
  </g>
</svg>
