<?xml version="1.0" encoding="UTF-8" standalone="no"?>
<svg
   viewBox="0 0 24 24"
   version="1.1"
   id="svg4"
   sodipodi:docname="php.svg"
   inkscape:version="1.1.1 (3bf5ae0d25, 2021-09-20)"
   xmlns:inkscape="http://www.inkscape.org/namespaces/inkscape"
   xmlns:sodipodi="http://sodipodi.sourceforge.net/DTD/sodipodi-0.dtd"
   xmlns="http://www.w3.org/2000/svg"
   xmlns:svg="http://www.w3.org/2000/svg">
  <defs
     id="defs8" />
  <sodipodi:namedview
     id="namedview6"
     pagecolor="#505050"
     bordercolor="#ffffff"
     borderopacity="1"
     inkscape:pageshadow="0"
     inkscape:pageopacity="0"
     inkscape:pagecheckerboard="1"
     showgrid="false"
     inkscape:snap-global="false"
     inkscape:zoom="24.807663"
     inkscape:cx="10.077531"
     inkscape:cy="9.6139649"
     inkscape:window-width="1920"
     inkscape:window-height="1027"
     inkscape:window-x="-8"
     inkscape:window-y="-8"
     inkscape:window-maximized="1"
     inkscape:current-layer="svg4" />
  <path
     d="M 12,17.757519 C 5.7216528,17.757519 0.63647567,15.181787 0.63647567,12 0.63647567,8.8182133 5.7216528,6.2424811 12,6.2424811 c 6.278347,0 11.363524,2.5757322 11.363524,5.7575189 0,3.181787 -5.085177,5.757519 -11.363524,5.757519"
     fill="#1E88E5"
     id="path2-2"
     style="fill:#ffffff;fill-opacity:1;stroke:none;stroke-width:0.94696"
     sodipodi:nodetypes="csssc" />
  <path
     d="M12 18.08c-6.63 0-12-2.72-12-6.08s5.37-6.08 12-6.08S24 8.64 24 12s-5.37 6.08-12 6.08m-5.19-7.95c.54 0 .91.1 1.09.31.18.2.22.56.13 1.03-.1.53-.29.87-.58 1.09-.28.22-.71.33-1.29.33h-.87l.53-2.76h.99m-3.5 5.55h1.44l.34-1.75h1.23c.54 0 .98-.06 1.33-.17.35-.12.67-.31.96-.58.24-.22.43-.46.58-.73.15-.26.26-.56.31-.88.16-.78.05-1.39-.33-1.82-.39-.44-.99-.65-1.82-.65H4.59l-1.28 6.58m7.25-8.33-1.28 6.58h1.42l.74-3.77h1.14c.36 0 .6.06.71.18.11.12.13.34.07.66l-.57 2.93h1.45l.59-3.07c.13-.62.03-1.07-.27-1.36-.3-.27-.85-.4-1.65-.4h-1.27L12 7.35h-1.44M18 10.13c.55 0 .91.1 1.09.31.18.2.22.56.13 1.03-.1.53-.29.87-.57 1.09-.29.22-.72.33-1.3.33h-.85l.5-2.76h1m-3.5 5.55h1.44l.34-1.75h1.22c.55 0 1-.06 1.35-.17.35-.12.65-.31.95-.58.24-.22.44-.46.58-.73.15-.26.26-.56.32-.88.15-.78.04-1.39-.34-1.82-.36-.44-.99-.65-1.82-.65h-2.75l-1.29 6.58z"
     fill="#1E88E5"
     id="path2"
     style="fill:#4f5b93;fill-opacity:1" />
</svg>
