<?xml version="1.0" encoding="UTF-8" standalone="no"?>
<svg
   width="24"
   height="24"
   viewBox="0 0 24 24"
   version="1.1"
   id="svg12"
   sodipodi:docname="xampp.svg"
   inkscape:version="1.1.1 (3bf5ae0d25, 2021-09-20)"
   xmlns:inkscape="http://www.inkscape.org/namespaces/inkscape"
   xmlns:sodipodi="http://sodipodi.sourceforge.net/DTD/sodipodi-0.dtd"
   xmlns="http://www.w3.org/2000/svg"
   xmlns:svg="http://www.w3.org/2000/svg">
  <sodipodi:namedview
     id="namedview14"
     pagecolor="#505050"
     bordercolor="#ffffff"
     borderopacity="1"
     inkscape:pageshadow="0"
     inkscape:pageopacity="0"
     inkscape:pagecheckerboard="1"
     showgrid="false"
     inkscape:snap-bbox="true"
     inkscape:bbox-paths="true"
     inkscape:bbox-nodes="true"
     inkscape:snap-page="true"
     inkscape:zoom="26.108527"
     inkscape:cx="14.899347"
     inkscape:cy="10.667013"
     inkscape:window-width="1920"
     inkscape:window-height="1027"
     inkscape:window-x="-8"
     inkscape:window-y="-8"
     inkscape:window-maximized="1"
     inkscape:current-layer="svg12" />
  <defs
     id="defs2" />
  <g
     stroke="none"
     stroke-width="1"
     fill="none"
     fill-rule="evenodd"
     id="g10"
     transform="matrix(0.09302319,0,0,0.09302319,0.09302802,-4.4553454e-7)">
    <g
       id="g8">
      <path
         d="m 127.92892,0.00180989 c 33.22671,0 66.45523,0 99.68194,-0.00180989 4.16943,0 8.30079,0.36197726 12.30163,1.5818406 8.67422,2.6442439 13.26784,8.8648234 15.06795,17.4382544 0.71424,3.398966 0.91727,6.864899 0.92452,10.329021 0.0526,23.271518 0.0925,46.543035 0.0943,69.814553 0.002,42.383921 0.007,84.767831 -0.0798,127.151751 -0.0127,5.93281 -0.32812,11.93077 -3.2576,17.33509 -3.24852,5.99434 -7.69712,10.73806 -14.44978,12.82485 -1.22001,0.37646 -2.49441,0.8054 -3.74524,0.8054 -2.88234,0.002 -5.68673,0.71672 -8.56001,0.71672 -65.06664,-0.005 -130.133275,0.0326 -195.199912,-0.0706 -5.291548,-0.009 -10.670109,-0.39455 -15.696989,-2.54832 -1.000662,-0.42894 -2.010389,-0.78911 -2.889594,-1.45876 C 5.719367,249.04216 1.3740983,242.95913 0.44232188,234.72777 0.10695488,231.75956 0,228.80763 0,225.83942 0.01087677,159.88716 0.01631515,93.934908 0.05075825,27.982652 0.05257104,24.156552 0.09245252,20.265297 1.2689562,16.603897 4.4032781,6.8449899 11.26108,1.5184946 21.427232,0.43618259 23.789304,0.1846084 26.173129,0.02171864 28.546077,0.01990875 61.673085,-0.00723955 94.801907,0.00180989 127.92892,0.00180989 Z"
         fill="#fb7a24"
         id="path4" />
      <path
         d="m 128.77525,164.11329 c -0.72757,4.45413 -1.23796,8.47932 -2.8379,12.18959 -7.49112,17.38396 -20.25625,27.97723 -39.393994,30.08575 -22.621775,2.49221 -43.515108,-11.46925 -49.797225,-33.15351 -2.276837,-7.85853 -2.048792,-15.86909 -1.223483,-23.86698 0.881415,-8.54628 3.398967,-16.65095 7.330041,-24.29591 0.562875,-1.09318 0.552016,-1.91848 -0.15203,-2.97727 -6.035973,-9.07839 -8.377966,-19.10697 -7.52732,-29.931906 0.454282,-5.786208 1.858754,-11.320842 4.48309,-16.504357 7.688399,-15.18495 24.569213,-28.071344 47.178319,-25.932058 19.879792,1.880472 38.293582,19.02915 41.167682,38.315303 0.14479,0.968289 0.41628,1.91848 0.73482,3.346481 0.476,-2.586329 0.81988,-4.720185 1.26511,-6.834133 3.70302,-17.521514 20.85351,-35.855667 45.16391,-36.081902 24.6398,-0.228046 42.88708,19.096115 46.32948,37.044762 1.45515,7.585235 1.20177,15.16323 0.002,22.73761 -1.19995,7.56713 -3.42249,14.84107 -6.67124,21.77474 -0.71672,1.52936 -0.64251,2.62977 0.2751,4.05053 5.30659,8.22413 7.64858,17.25184 7.34814,27.056 -0.62803,20.45715 -15.09626,38.80216 -35.0014,43.60017 -27.79081,6.69658 -49.09318,-9.92361 -56.26214,-30.03145 -1.16918,-3.27228 -1.72301,-6.68934 -2.41077,-10.59146 z m 50.4886,-35.94073 c 0.29683,-1.15652 1.19272,-1.8497 1.83704,-2.70578 6.96806,-9.25938 10.63308,-19.60288 9.81502,-31.249504 -0.59546,-8.501038 -7.58705,-14.488144 -16.05008,-14.171414 -8.46846,0.31673 -14.85012,6.848612 -14.96957,15.322502 -0.009,0.693186 0.0326,1.388183 -0.0109,2.07775 -0.58279,9.031336 -5.5654,13.977756 -13.11625,14.529776 -1.37914,0.10135 -2.76189,0.22442 -4.14283,0.22804 -9.80054,0.0217 -19.59927,0.0181 -29.3998,0.009 -4.28039,-0.004 -8.52457,0.46152 -12.60043,1.71939 -19.027345,5.87128 -30.121951,18.88255 -33.796021,38.27549 -0.727574,3.83696 -1.382753,7.81871 -0.124882,11.76064 1.804457,5.65228 5.169036,9.85664 11.125374,11.26293 6.173524,1.45696 11.550697,-0.15565 15.82203,-5.00434 2.761887,-3.13472 3.632443,-6.85947 3.83877,-10.94801 0.533916,-10.51544 6.260399,-15.77135 15.809359,-15.69171 14.64923,0.12126 29.30026,0.0253 43.95129,0.0362 2.60081,0.002 2.62434,0.0362 2.63701,2.60804 0.0253,4.75095 -0.12127,9.50734 0.0615,14.25286 0.29863,7.74631 7.11467,14.18589 15.01663,14.41213 8.14811,0.23347 15.41119,-5.79345 15.94149,-13.66103 0.4579,-6.80879 0.42894,-13.66102 -0.0181,-20.47525 -0.34569,-5.27582 -3.19988,-9.03495 -8.0359,-11.21767 -1.16014,-0.52125 -2.38,-0.91219 -3.59082,-1.37009 z M 87.43201,112.18945 c 3.151013,0 5.722862,-0.029 8.292901,0.0127 1.274161,0.0199 1.746541,-0.52849 1.735682,-1.77731 -0.04163,-4.9428 0.213566,-9.90189 -0.101354,-14.826591 C 96.942965,89.100726 93.487891,84.40407 87.43925,82.034928 81.236768,79.60606 75.560963,80.992433 70.761143,85.573256 c -4.821538,4.602542 -5.464048,10.23129 -3.777234,16.392144 1.549264,5.66133 5.210664,8.8775 10.967914,9.84941 3.344671,0.56287 6.707441,0.2932 9.480187,0.37464 z"
         fill="#ffffff"
         id="path6" />
    </g>
  </g>
</svg>
